# xmcd CD database file
#
# Track frame offsets:
#	150
#	13646
#	26267
#	38522
#	53224
#	67015
#	78848
#	93995
#	110837
#	128446
#	138646
#	153397
#	169252
#
# Disc length: 2389 seconds
#
# Revision: 0
# Processed by: cddbd v1.5.2PL0 Copyright (c) Steve Scherf et al.
# Submitted via: CDex 1.51
#
DISCID=a009530d
DTITLE=Bo Porter and the Dixie Rockits - Bo Porter and the Dixie Rockits
DYEAR=2005
DGENRE=Country
TTITLE0=Tennessee Saturday Night
TTITLE1=Must Be Jelly
TTITLE2=Are You Lonely Little Girl
TTITLE3=Walk On Boy
TTITLE4=Chattanooga Shoe Shine Boy
TTITLE5=Bite Your Tongue
TTITLE6=Smoke Smoke Smoke
TTITLE7=Love Sick Blues
TTITLE8=Need Me
TTITLE9=Walking The Floor
TTITLE10=Shot Gun Boogie
TTITLE11=I Don't Blame You
TTITLE12=Have I Told You Lately That I Love You
EXTD=YEAR: 2005
EXTT0=
EXTT1=
EXTT2=
EXTT3=
EXTT4=
EXTT5=
EXTT6=
EXTT7=
EXTT8=
EXTT9=
EXTT10=
EXTT11=
EXTT12=
PLAYORDER=
